<?xml version="1.0" encoding="UTF-8" standalone="no"?>
<svg width="251px" height="94px" viewBox="0 0 251 94" version="1.1" xmlns="http://www.w3.org/2000/svg" xmlns:xlink="http://www.w3.org/1999/xlink" xmlns:sketch="http://www.bohemiancoding.com/sketch/ns">
    <g id="logos-noir-&amp;-blanc" stroke="none" stroke-width="1" fill="none" fill-rule="evenodd" sketch:type="MSPage">
        <g id="logo-noir" sketch:type="MSArtboardGroup" transform="translate(-1.000000, -1.000000)" fill="#000000">
            <g sketch:type="MSLayerGroup" transform="translate(2.000000, 2.000000)">
                <path d="M249.227389,92.5238571 L219.781997,-0.0218571429 L205.865614,-0.0218571429 L177.614334,88.3945714 L149.482509,-0.0218571429 L135.5657,-0.0218571429 L107.31442,88.3945714 L79.1825939,-0.0218571429 L70.8425768,-0.0218571429 L100.414249,92.5238571 L114.330205,92.5238571 L142.462884,4.10785714 L170.713737,92.5238571 L184.630119,92.5238571 L212.766212,4.10785714 L241.014078,92.5238571 L249.227389,92.5238571" id="Fill-1" sketch:type="MSShapeGroup"></path>
                <path d="M53.8302048,84.0124286 C48.3993174,89.4694286 40.3865188,92.4518571 30.818686,92.4518571 L-0.079778157,92.4518571 L-0.079778157,-0.0218571429 L30.818686,-0.0218571429 C40.3865188,-0.0218571429 48.3993174,2.961 53.8302048,8.41757143 C63.1390785,17.7668571 62.7581058,32.445 62.7581058,44.9151429 C62.7581058,57.3827143 63.137372,74.6541429 53.8302048,84.0124286 L53.8302048,84.0124286 Z M48.5763652,14.0061429 C43.3775597,8.65671429 36.4125427,6.999 29.1889932,6.999 L7.38182594,6.999 L7.38182594,85.4314286 L29.1889932,85.4314286 C36.4125427,85.4314286 43.3775597,83.7732857 48.5763652,78.4242857 C55.7999147,71.0442857 55.2828498,54.9942857 55.2828498,44.9404286 C55.2828498,34.8848571 55.7999147,21.3861429 48.5763652,14.0061429 L48.5763652,14.0061429 Z" id="Fill-2" sketch:type="MSShapeGroup"></path>
            </g>
        </g>
    </g>
</svg>